<svg version="1.1" id="Layer_1" xmlns="http://www.w3.org/2000/svg" xmlns:xlink="http://www.w3.org/1999/xlink" x="0px" y="0px"
	 width="100%" viewBox="0 0 1024 1024" enable-background="new 0 0 1024 1024" xml:space="preserve">
<path fill="#000000" opacity="1.000000" stroke="none"
		d="
M740.084229,560.014038 
	C740.119873,575.174744 740.129883,589.837952 740.177673,604.501038 
	C740.199890,611.337891 742.706482,614.618347 749.022217,617.100952 
	C756.290039,619.957947 763.408813,623.192688 770.658508,626.097961 
	C778.269897,629.148132 786.247986,630.947754 794.225037,632.768433 
	C797.091187,633.422668 799.292664,635.662292 802.064758,636.867554 
	C810.672729,640.610168 820.355530,640.462891 828.734131,644.600464 
	C833.466553,646.937561 838.304871,648.649292 843.467957,649.566284 
	C847.549316,650.291077 848.399475,653.231506 846.852844,656.263428 
	C844.050293,661.757629 844.130920,667.460449 844.167480,673.313660 
	C844.188049,676.621704 843.778503,679.963013 843.234070,683.234619 
	C842.777649,685.977051 843.057617,689.693604 838.057007,688.216736 
	C836.703552,687.817017 835.838379,689.979492 834.796814,691.014709 
	C828.653076,697.120605 823.980591,704.464478 818.178589,710.843445 
	C814.806519,714.550842 813.352783,718.286438 812.919678,723.586182 
	C812.003845,734.791016 811.788391,745.921021 811.856262,757.146362 
	C812.032776,786.375610 813.735474,815.576782 813.312744,844.813538 
	C813.284058,846.798950 813.731201,848.786804 813.863647,850.779724 
	C814.217224,856.100220 812.954834,860.504272 809.263733,864.927246 
	C795.613281,881.283875 782.569580,898.145630 769.201233,914.739746 
	C765.966003,918.755554 761.379211,921.330200 757.583740,924.806213 
	C740.240906,940.689941 724.389832,957.951294 708.828186,975.536987 
	C703.739441,981.287598 699.762573,987.802917 694.482361,993.793091 
	C697.625244,996.575317 701.342834,997.926331 704.936890,999.411377 
	C709.079163,1001.123169 713.333374,1002.562500 717.521301,1004.166321 
	C719.182251,1004.802368 720.669189,1005.855774 719.930420,1007.858032 
	C719.283875,1009.610474 717.516968,1009.314880 716.024048,1009.097290 
	C715.374695,1009.002625 714.762268,1008.678833 714.119446,1008.511414 
	C707.934875,1006.901428 702.357056,1004.046143 695.171692,1006.060608 
	C686.740967,1008.424438 678.683350,1003.322449 670.499695,1001.344543 
	C643.579651,994.838379 617.737671,985.027710 592.113953,974.752380 
	C579.961426,969.879211 567.359497,966.092041 555.753601,959.696289 
	C550.331543,956.708374 543.835083,955.545349 537.719116,953.968079 
	C525.770386,950.886475 514.430542,946.045471 502.738098,942.230774 
	C485.819366,936.710938 468.853394,931.311035 452.090820,925.345215 
	C438.944122,920.666260 426.059631,915.245850 413.093597,910.067261 
	C409.805054,908.753784 406.725922,907.170288 403.204926,909.563293 
	C401.525208,910.704834 399.639099,909.869446 397.961945,909.063599 
	C382.202789,901.490540 365.509979,896.237976 349.374939,889.587280 
	C338.773346,885.217407 327.428650,882.648987 316.831360,878.270386 
	C296.385559,869.822510 275.668365,861.874023 256.131744,851.433044 
	C241.718216,843.730042 226.542694,838.055115 211.422668,832.077393 
	C205.331451,829.669189 199.928192,825.493042 194.269333,822.027649 
	C189.546097,819.135254 189.522614,813.756592 188.765457,809.359131 
	C185.941833,792.959595 184.649506,776.398804 184.643188,759.705200 
	C184.638916,748.418152 185.014801,737.170349 185.652161,725.916626 
	C186.249405,715.371155 185.990433,704.425842 182.862274,694.738342 
	C178.916901,682.520081 170.642868,672.019653 160.772690,663.352417 
	C159.168411,661.943604 156.443069,661.851562 154.282486,661.028564 
	C147.757828,658.543457 141.019547,656.606995 134.846039,653.212646 
	C132.990173,652.192322 131.000458,651.360046 128.695557,651.405762 
	C124.616379,651.486694 123.371819,648.790649 123.354210,645.251343 
	C123.348495,644.100220 123.560417,642.927246 123.822647,641.799133 
	C125.214943,635.809387 122.141159,631.004944 119.487350,626.203735 
	C117.927292,623.381226 118.730164,621.596008 121.232101,620.610718 
	C124.469185,619.335938 127.100525,617.128540 129.224899,614.748901 
	C139.109116,603.676697 152.318237,596.812378 163.344559,587.196899 
	C178.272949,574.178650 193.519012,561.525146 208.588013,548.667297 
	C211.008469,546.601990 213.422760,544.621399 216.403671,543.383362 
	C228.324463,538.432373 233.112350,531.284973 231.564957,518.694031 
	C230.339798,508.724884 231.137451,498.723175 229.973206,488.779266 
	C227.843369,470.588287 228.019836,452.255707 227.000244,433.994659 
	C226.527206,425.522583 227.020432,416.999268 226.644943,408.518250 
	C226.337112,401.564911 225.895782,394.603058 224.282394,387.745239 
	C223.577972,384.750916 222.149124,382.987579 219.436844,382.045990 
	C207.089355,377.759491 197.838364,369.329498 189.562958,359.640930 
	C186.396011,355.933197 183.826050,358.036560 180.885925,360.737610 
	C178.289581,355.190369 174.525131,357.047241 170.086136,357.843292 
	C159.538910,359.734650 149.619308,359.873169 141.356522,349.981293 
	C131.298386,337.940094 126.067360,325.253387 125.340675,309.315491 
	C124.714455,295.580902 124.382362,281.833282 123.992676,268.091431 
	C123.884865,264.289703 124.489868,260.469025 124.740646,256.655243 
	C124.846626,255.043579 125.551285,253.823257 126.865852,252.891754 
	C145.449051,239.723419 157.109634,220.860428 168.727997,201.965973 
	C176.835510,188.781052 184.988342,175.623459 193.007370,162.384872 
	C199.375412,151.871933 202.783188,140.190964 205.953445,128.440948 
	C207.636871,122.201530 208.843018,115.794128 211.050476,109.749557 
	C212.440430,105.943520 215.138260,102.564499 217.531158,99.193970 
	C219.012070,97.108047 220.175766,95.275269 217.510544,92.828407 
	C224.436600,88.706062 231.283783,86.141075 238.112793,83.718559 
	C249.551331,79.660896 259.422485,72.838638 269.725250,66.745239 
	C271.895599,65.461639 271.885284,63.447224 271.792999,61.511803 
	C271.412659,53.534744 271.122253,45.540218 270.319763,37.600529 
	C269.645081,30.924866 269.625763,24.285963 270.253723,17.654440 
	C270.883453,11.004168 275.795593,7.419385 282.136627,9.358683 
	C293.084229,12.706816 303.898895,16.495544 314.736267,20.196329 
	C324.655579,23.583620 334.307251,28.139505 344.475586,30.327658 
	C362.170135,34.135418 379.402008,39.313297 396.563721,44.884190 
	C422.335388,53.249981 448.059753,61.768330 473.920441,69.849907 
	C485.498627,73.468147 497.435394,75.924965 509.074310,79.365768 
	C531.193115,85.904701 553.031555,93.474533 575.331665,99.293251 
	C595.056396,104.439964 614.030151,112.984276 634.190125,115.454559 
	C652.596497,117.709976 668.104980,126.851067 685.140381,132.179962 
	C707.210388,139.083740 729.109375,146.533340 751.166931,153.478012 
	C758.545105,155.801010 764.667725,160.571762 771.889587,163.180511 
	C774.017700,163.949249 776.028625,166.370972 773.334839,169.173080 
	C772.222839,170.329834 771.955261,171.893387 772.193665,173.392883 
	C774.101074,185.391556 772.673584,197.508148 773.241577,209.567947 
	C773.887878,223.291855 773.336487,237.172546 773.363159,250.983749 
	C773.389832,264.780853 773.689392,278.569702 774.959290,292.330017 
	C775.992493,303.526703 774.055664,314.697083 774.272644,325.897827 
	C774.347473,329.760376 774.437988,333.599945 777.824097,336.140656 
	C777.766663,336.673065 777.852844,337.180420 777.679199,337.295410 
	C771.700378,341.255066 771.865784,347.583923 771.470154,353.621094 
	C771.270020,356.674591 769.964539,358.611664 767.104004,359.600677 
	C761.385986,361.577667 758.804993,366.025330 756.765259,371.472656 
	C749.414307,391.104523 742.630920,410.896606 737.853271,431.330841 
	C737.477295,432.938873 737.264343,434.619568 737.241028,436.270264 
	C736.887817,461.249634 735.250916,486.235931 736.513916,511.204834 
	C737.329041,527.321533 739.676941,543.351440 740.084229,560.014038 
M577.675720,222.793549 
	C581.200989,220.578445 585.002502,219.775955 589.295593,220.979431 
	C587.172607,218.493958 584.833435,217.098969 582.128845,216.254105 
	C568.655884,212.045349 555.290283,207.520630 541.751648,203.482285 
	C528.007568,199.382660 514.191406,195.021362 500.832764,189.465179 
	C491.362366,185.526199 489.563446,187.304611 490.951416,197.238083 
	C491.130341,198.518661 490.754211,199.950714 492.098358,200.996613 
	C492.487152,201.045502 492.982422,201.197525 493.458862,201.152069 
	C495.473145,200.959839 497.844696,200.460739 498.238892,203.251114 
	C498.662781,206.251831 496.032471,206.005508 494.136780,206.290253 
	C492.322296,206.562851 490.616974,207.364960 490.607971,209.229553 
	C490.584076,214.157700 488.380249,219.436478 492.784149,223.710129 
	C490.859344,226.088821 486.738251,226.900452 487.931274,230.810181 
	C490.073853,231.913513 491.967255,229.470291 494.632416,231.637146 
	C488.632202,233.730911 484.338898,236.986984 483.386963,243.131042 
	C482.995819,245.655624 481.534271,247.688049 480.512268,249.933884 
	C478.973083,253.316299 476.674286,256.591309 476.970337,260.478912 
	C477.685486,261.250427 478.315552,260.978821 478.927521,260.737640 
	C480.282410,260.203674 481.691620,259.958862 482.240906,261.670227 
	C482.792755,263.389709 481.349304,264.356140 480.081848,264.374908 
	C474.162659,264.462433 472.237000,268.680725 469.839386,273.061676 
	C467.498169,277.339508 466.050476,282.741760 459.709076,283.637238 
	C457.142609,283.999634 454.811584,283.155151 452.296082,283.454041 
	C439.747742,284.945038 427.266663,286.851440 414.795990,288.874634 
	C410.637878,289.549286 406.378845,290.002136 401.981476,289.337769 
	C402.630707,287.103516 404.323151,287.241760 405.698181,286.985840 
	C422.220581,283.910919 438.743042,280.841644 455.403900,278.569763 
	C458.174744,278.191925 461.061462,277.628448 463.050995,274.904266 
	C449.049774,273.721710 436.128052,281.932861 421.958801,279.270569 
	C434.947662,273.835480 449.599792,274.644531 462.574524,268.918823 
	C451.534241,267.977173 440.654785,272.773041 428.804657,269.868378 
	C435.733490,264.009979 443.496826,265.497864 450.496826,264.061066 
	C466.378632,260.801147 468.291351,260.270813 470.737183,256.343079 
	C461.178711,257.100739 452.183777,259.772186 443.314087,257.773224 
	C445.258606,251.223999 451.731506,252.148804 457.200348,249.054642 
	C450.528168,249.622772 445.179626,251.123428 439.392578,250.188156 
	C441.048676,246.923065 443.617645,247.276932 445.822510,246.869553 
	C455.459442,245.088913 465.110565,243.383774 474.736176,241.544388 
	C476.996918,241.112381 479.202820,240.291458 479.626099,237.283310 
	C477.504608,236.375565 475.417450,238.956116 473.472870,237.164658 
	C475.519928,233.422760 483.225128,235.625732 481.950684,228.199341 
	C452.160797,235.293320 422.576508,242.338348 392.950043,249.393402 
	C392.356964,247.574677 392.711487,245.874466 393.446594,244.433670 
	C399.273834,233.012451 402.036163,220.413483 407.691833,208.841232 
	C413.188202,197.594986 420.260315,186.015411 414.549561,172.219681 
	C416.247253,171.365433 418.566467,171.882645 419.247345,168.874130 
	C420.569305,163.033142 419.883606,161.935150 412.385956,159.512344 
	C396.872803,154.499344 381.182434,150.217346 365.155396,147.179077 
	C360.082428,146.217377 355.526245,143.651199 350.456329,142.452286 
	C340.146545,140.014282 329.903259,137.190384 319.811615,133.965195 
	C310.328705,130.934555 300.803253,128.186844 291.117645,125.885933 
	C287.834595,125.106018 284.421967,126.756126 281.416992,125.017731 
	C266.332520,116.291367 249.746719,111.324867 233.276474,106.248260 
	C229.000443,104.930260 224.975037,104.672028 223.953186,99.481323 
	C220.839905,100.039993 220.861984,102.456268 220.648605,104.190697 
	C219.441422,114.002480 216.198746,123.272110 213.395020,132.661179 
	C204.774475,161.529327 193.579422,189.195892 174.947556,213.262222 
	C163.905060,227.525558 150.707382,239.821655 138.187607,252.733932 
	C133.902313,257.153534 131.068069,262.353607 131.416183,268.797943 
	C132.376007,286.565247 132.337769,304.460815 134.582703,322.064819 
	C137.171494,342.365265 155.364426,352.609375 173.838882,347.086151 
	C181.464111,344.806519 187.683441,337.908539 187.676666,332.377136 
	C187.659561,318.387817 187.655350,304.398438 187.681824,290.409180 
	C187.688416,286.930054 188.918350,282.961029 187.628510,280.099609 
	C186.108337,276.727234 181.135544,277.609833 177.921509,275.965393 
	C176.022491,274.993805 173.933441,274.374573 172.484238,272.755951 
	C172.778671,271.537781 174.612823,272.496399 174.625732,270.761200 
	C164.582397,265.706909 153.182129,263.287750 142.744492,257.286499 
	C145.882126,254.283142 148.441467,255.395248 150.655609,256.034485 
	C166.312424,260.554718 181.932053,265.205200 197.531281,269.920898 
	C199.046173,270.378845 200.518661,271.040314 201.745605,269.897247 
	C207.217926,264.798981 214.460999,260.992676 214.969727,252.164505 
	C215.048264,250.801590 215.769012,249.654129 216.714111,248.652023 
	C228.519989,236.133774 237.816299,221.770706 247.095413,207.388947 
	C249.179703,204.158524 250.552017,201.047623 247.190109,197.919113 
	C248.762161,196.036774 250.092697,194.533157 251.216370,192.697525 
	C255.397385,185.867447 256.397034,177.994110 259.312256,170.781570 
	C260.837891,167.007080 263.937836,164.265640 265.183105,160.429688 
	C268.612213,149.866608 275.321686,140.879776 279.469513,130.662704 
	C279.976990,129.412659 280.526947,127.889236 282.191864,128.339798 
	C284.027893,128.836670 284.115753,130.485367 283.598206,132.026474 
	C282.272583,135.973587 281.851593,140.127014 280.431152,144.088058 
	C278.386963,149.788376 277.008820,155.727554 275.270721,161.830429 
	C279.176117,162.643738 281.517151,160.162979 284.340881,159.514633 
	C297.334167,156.531326 310.484131,154.571152 323.688019,152.928436 
	C333.424377,151.717133 343.184937,150.695129 352.943573,149.673264 
	C354.957123,149.462418 358.546600,149.009262 357.031464,152.272507 
	C355.615814,155.321594 356.133026,158.207138 355.450409,160.992920 
	C352.805939,171.785568 350.219757,182.720474 346.104858,192.999084 
	C336.585327,216.777802 325.825836,240.044098 313.753326,262.654175 
	C311.392822,267.074982 309.437225,271.910736 305.655975,275.953156 
	C301.952026,271.994415 299.305756,274.172302 297.566803,277.240448 
	C292.940826,285.402405 287.780518,293.087219 279.829529,299.282898 
	C286.984375,297.948059 289.630798,291.195557 296.329163,287.805084 
	C294.173645,295.234680 287.725220,297.091095 284.633453,301.677887 
	C286.032349,303.600769 287.983276,303.748505 289.670746,304.255737 
	C303.221954,308.329132 316.717377,312.576813 329.916718,317.685028 
	C335.654297,319.905487 341.183319,321.995636 346.584808,317.008942 
	C347.077240,316.554352 348.096161,316.670135 349.349121,316.428894 
	C348.371490,319.693665 348.780426,322.377899 351.385498,324.102112 
	C357.181335,327.938080 364.010040,329.824341 370.556641,330.415680 
	C381.319977,331.387970 391.761230,327.887146 401.298553,323.124847 
	C408.884460,319.336945 416.782074,319.643433 424.600037,319.284607 
	C428.326080,319.113556 429.821777,317.878998 431.513855,314.664307 
	C416.232025,316.001617 401.589386,317.678894 386.880005,319.254639 
	C389.043823,315.324188 392.632599,314.468658 396.186066,313.961639 
	C408.705780,312.175201 421.253906,310.587982 433.790375,308.918488 
	C435.826569,308.647278 438.023102,308.630310 439.262939,305.884247 
	C419.478088,306.503815 400.839508,312.417145 381.557373,313.325897 
	C384.051544,311.536102 386.681396,310.579437 389.372711,309.849182 
	C407.364410,304.967346 425.513763,300.805054 443.930237,297.830139 
	C446.296234,297.447968 448.814941,296.676819 449.677490,292.145355 
	C423.227661,296.925079 397.482422,302.142670 370.173859,304.452759 
	C372.738861,302.209259 374.652344,301.610901 376.553741,301.204254 
	C399.459686,296.305298 422.263702,290.865906 445.436615,287.338287 
	C451.999420,286.339264 458.762848,285.381042 465.360260,287.829559 
	C465.156006,291.039856 463.462311,291.618835 460.935883,291.607422 
	C457.975403,291.593994 453.885986,291.162079 452.780273,294.055969 
	C450.916809,298.932922 447.840454,303.208099 445.241516,309.326630 
	C449.714111,306.697540 451.670807,303.020996 456.597687,301.641663 
	C453.643616,306.972870 449.957611,310.283630 446.496643,313.639954 
	C437.803314,322.070496 426.306641,327.102448 418.570679,336.820435 
	C415.823517,340.271515 413.690918,344.557312 408.824188,346.024628 
	C410.185913,347.456238 411.565338,347.496490 412.834442,347.858765 
	C417.256592,349.120911 417.838135,351.177216 414.401520,354.336060 
	C411.772797,356.752350 410.785675,359.815277 409.904022,363.045807 
	C407.153076,373.125916 407.636658,383.596619 406.334930,393.855255 
	C405.296936,402.035217 407.343872,410.320648 408.309082,418.564209 
	C409.425812,428.101959 414.283508,434.834747 421.283905,439.779358 
	C439.868591,452.906311 454.345032,451.644897 470.231171,435.593262 
	C472.601654,433.198059 474.459106,430.658783 478.266205,431.895142 
	C478.266205,428.476379 478.090881,425.499695 478.296204,422.549500 
	C479.243164,408.942963 480.607452,395.364960 480.756775,381.706665 
	C480.787415,378.903473 480.907654,376.902649 477.399445,375.603027 
	C475.027283,374.724304 472.259186,372.934967 470.104095,369.151306 
	C477.682312,372.962280 478.371460,365.695160 482.678223,363.671387 
	C479.216492,360.776825 480.993683,358.872986 483.308319,357.036285 
	C488.635315,352.809265 494.057251,348.753540 499.009460,344.008698 
	C512.494202,331.088745 523.806580,316.467010 532.011719,299.835419 
	C540.097778,283.445190 544.883362,265.705017 550.229980,248.232086 
	C551.309204,244.705093 550.510620,240.267761 553.886780,237.681000 
	C556.139709,235.954865 556.547791,233.853836 557.045166,231.303177 
	C557.786621,227.501007 557.088440,223.232132 559.646973,219.355728 
	C562.377014,222.491333 559.906677,226.305649 562.824707,229.084656 
	C567.538269,227.274506 572.902039,226.691483 577.008850,222.992645 
	C577.008850,222.992645 576.995178,223.015732 577.675720,222.793549 
M161.950546,636.393066 
	C170.054474,638.905334 178.134949,641.496582 186.267609,643.912048 
	C199.506638,647.843994 212.961288,651.618774 225.261948,657.658386 
	C238.126694,663.974792 251.626572,667.736633 265.147156,671.685547 
	C275.987701,674.851746 287.067322,677.201050 298.048981,679.879639 
	C299.238983,680.169861 300.157349,680.719666 300.962128,681.642761 
	C304.579834,685.792297 309.337433,687.470947 314.675690,687.590637 
	C317.124054,687.645508 319.201447,688.432617 321.223907,689.686096 
	C325.312378,692.220337 329.553497,694.473206 334.118774,696.033569 
	C350.661713,701.687805 367.212860,707.319458 384.032471,712.114441 
	C419.899200,722.339478 453.778229,738.314636 489.735443,748.352478 
	C531.455200,759.999084 570.718079,778.678894 611.964050,791.786926 
	C631.933167,798.133179 651.455139,805.883667 671.194702,812.956116 
	C676.367920,814.809509 681.051758,814.355957 685.763672,810.910278 
	C691.556519,806.674072 697.109985,802.183533 702.429871,797.407715 
	C707.837158,792.553345 712.990601,787.420715 716.473816,781.121765 
	C715.522705,779.015869 713.760803,778.904053 712.262756,778.235596 
	C703.105408,774.149170 693.236206,772.239990 683.862976,768.840698 
	C674.503174,765.446289 665.290222,761.636047 655.879578,758.395020 
	C646.272644,755.086243 636.771667,751.608826 628.047729,746.326416 
	C626.469421,745.370667 623.724731,744.533325 624.911194,742.049561 
	C625.978271,739.815796 628.491943,740.819092 630.321045,741.393250 
	C640.315796,744.530579 650.335449,747.607178 660.229919,751.040649 
	C673.584961,755.674927 686.082275,762.488831 699.646729,766.649048 
	C707.477539,769.050781 714.953491,772.489014 723.525513,772.145264 
	C725.845703,772.052246 727.361755,772.198486 729.040955,770.382874 
	C735.366394,763.544067 741.360718,756.398071 748.155212,749.986084 
	C750.910461,747.385925 753.493408,744.500305 755.652161,741.395203 
	C758.912598,736.705383 758.595703,735.939819 753.368225,733.981262 
	C746.196472,731.294189 738.984741,728.708679 731.746155,726.206909 
	C724.083069,723.558533 717.645691,724.670837 713.654724,731.527832 
	C710.550842,736.860779 704.935974,737.514465 701.197815,741.263245 
	C699.194275,743.272583 696.722351,743.372437 695.727722,739.551392 
	C694.865906,736.240173 692.274597,734.273682 689.134277,733.257568 
	C685.502991,732.082520 681.812195,731.057800 678.095703,730.187622 
	C672.691650,728.922302 671.085144,726.921204 671.002258,720.540039 
	C673.953247,720.376465 677.158142,721.035767 679.167053,717.618591 
	C680.665405,715.070129 683.141235,713.113770 684.801819,710.638855 
	C686.997375,707.366760 690.247559,704.590454 690.679443,700.373657 
	C691.561096,691.765442 692.767578,683.182739 692.749390,674.496643 
	C692.714172,657.680847 692.728027,640.864990 692.749207,624.049133 
	C692.761108,614.609436 691.371216,612.486877 682.029419,610.222473 
	C672.353027,607.876953 662.878357,604.623169 653.498047,601.599365 
	C635.168274,595.690674 617.035645,589.026855 598.677185,583.119019 
	C577.290710,576.236816 556.003418,569.124634 534.931335,561.299377 
	C522.789062,556.790283 509.834198,554.485168 497.650330,550.069763 
	C456.926666,535.311401 414.856781,524.789001 374.055634,510.315826 
	C369.916534,508.847565 366.076935,509.278534 362.582977,511.529297 
	C344.832825,522.963318 326.854095,534.028992 308.382538,544.244873 
	C298.964935,549.453369 290.998657,557.144775 280.466522,560.429016 
	C279.252075,560.807739 278.326050,561.686279 277.710358,563.082886 
	C275.023590,569.177612 269.246460,571.960510 262.471863,570.571960 
	C261.225586,570.316528 260.165009,570.489380 259.148041,571.144287 
	C255.228516,573.668457 250.877914,575.790527 247.940475,579.420715 
	C245.480057,582.461487 242.120850,583.159058 239.512421,581.993408 
	C233.379578,579.252808 226.711136,578.414673 220.610306,575.834534 
	C216.226517,573.980469 215.938446,572.128540 219.052292,568.243958 
	C222.704559,563.687683 226.314606,559.113647 228.742249,553.748108 
	C229.611969,551.825867 230.055527,549.776367 228.208862,548.237671 
	C226.019394,546.413391 224.544113,548.430603 223.067886,549.630249 
	C214.151962,556.875549 205.174973,564.050659 196.418213,571.484558 
	C192.441666,574.860413 187.543442,577.266357 184.517395,581.668091 
	C185.926498,583.914856 187.927567,584.421570 189.808014,584.934082 
	C205.890198,589.317688 221.274536,595.739380 237.060425,600.944946 
	C244.501251,603.398621 246.773499,610.054199 251.945572,614.409851 
	C247.036789,613.680725 242.306549,612.748230 238.004990,610.846252 
	C219.248093,602.552917 199.386093,597.312683 180.407837,589.669617 
	C176.797424,588.215576 174.224030,588.903015 171.407928,591.355286 
	C163.505157,598.237000 155.219269,604.689392 147.486832,611.751587 
	C143.662827,615.244202 139.549194,618.815613 137.686874,624.163086 
	C144.879852,629.715820 152.682236,633.617859 161.950546,636.393066 
M264.215027,778.171936 
	C278.704773,783.294434 292.954620,788.911926 305.436829,798.242615 
	C269.634125,786.708618 233.377029,776.659058 198.072937,763.040527 
	C195.148926,769.771179 196.395233,775.698303 196.871597,781.622620 
	C197.145035,785.023438 198.770248,786.276672 202.023453,787.158508 
	C213.087479,790.157715 224.207108,793.119324 234.973450,797.013306 
	C255.933945,804.594299 276.711945,812.688599 297.475189,820.801514 
	C304.703613,823.625854 311.048035,828.279663 318.423004,831.025085 
	C334.953064,837.178589 351.856903,842.280273 368.159851,849.080261 
	C379.937500,853.992676 391.305450,859.746887 403.701599,863.396973 
	C419.474823,868.041443 434.720917,874.458191 450.252045,879.947388 
	C471.096008,887.314453 491.369415,896.308960 512.902832,901.726746 
	C518.521851,903.140564 524.269592,904.198730 529.557800,906.853149 
	C543.996033,914.100586 559.214233,919.579651 573.920105,926.224731 
	C583.103455,930.374390 593.208008,931.235962 602.682434,934.443604 
	C625.564514,942.190491 647.645020,952.017334 670.390686,960.099609 
	C671.603394,960.530457 672.726318,961.475525 674.418579,960.759644 
	C675.318848,957.644531 674.877258,954.317932 674.861572,951.037781 
	C674.782837,934.589661 674.758728,934.612427 658.757263,930.073608 
	C637.103943,923.931580 616.300659,915.354736 595.152771,907.766785 
	C592.760742,906.908447 590.075317,906.081360 589.652100,901.946045 
	C595.872925,902.398987 601.258057,904.439697 606.619019,906.400574 
	C626.311768,913.603943 646.538330,919.252930 666.068359,926.940308 
	C671.182739,928.953491 673.283875,927.256104 673.250122,921.796997 
	C673.230591,918.633606 672.688599,915.442932 672.960083,912.314758 
	C673.469788,906.441223 670.518677,903.679932 665.387390,901.646118 
	C645.116150,893.611877 623.912292,888.188477 603.874084,879.518066 
	C601.744385,878.596558 599.123657,878.310303 598.271667,875.810669 
	C597.375183,873.180176 595.315674,872.450562 593.078796,871.670105 
	C584.746033,868.762695 576.414124,865.851074 568.121704,862.831543 
	C566.233032,862.143860 563.897583,861.653076 563.654175,859.027771 
	C565.381409,857.390442 567.038086,858.165649 568.559814,858.627930 
	C577.793823,861.433655 587.188293,863.834717 596.185181,867.271484 
	C615.332397,874.585571 634.868469,880.692200 654.317200,887.090698 
	C658.694885,888.530945 663.098694,890.280396 666.441467,893.780457 
	C667.343445,894.724854 668.209351,895.990784 669.785706,895.375061 
	C671.438477,894.729614 671.750854,893.206909 671.708557,891.648254 
	C671.591003,887.327820 670.867432,882.942322 671.386475,878.705444 
	C672.151489,872.459900 668.931396,869.514587 663.735107,868.363037 
	C651.084961,865.559509 640.564575,857.204407 627.369202,855.426270 
	C618.252075,854.197693 610.108582,848.834045 601.199158,846.006042 
	C587.441223,841.639099 574.218811,835.584961 560.769104,830.246704 
	C559.422791,829.712280 557.863831,828.450684 556.717285,830.074951 
	C555.261658,832.136902 553.644775,831.212036 552.358398,830.475159 
	C544.813354,826.152954 536.719055,822.878479 528.460999,820.666077 
	C518.173950,817.910217 509.250519,810.436890 497.796021,811.734314 
	C496.931976,811.832153 495.971741,811.011047 495.045837,810.643188 
	C476.072052,803.104614 457.561462,794.364136 437.467560,789.805786 
	C430.711853,788.273193 424.099121,785.645081 417.784607,782.730042 
	C404.917542,776.789978 391.578461,772.322083 378.134491,767.930054 
	C370.529907,765.445618 362.227478,763.509949 356.253632,757.534180 
	C351.574890,752.853882 343.812866,752.417114 340.622131,745.813110 
	C340.416779,745.388062 339.425446,745.125488 338.813080,745.148193 
	C333.115753,745.359375 327.563721,743.377686 322.036560,743.423584 
	C313.288422,743.496277 305.146088,741.134888 297.172424,738.522583 
	C276.983032,731.908264 257.075623,724.438721 236.972855,717.552368 
	C224.517227,713.285583 212.202682,708.714905 200.208130,703.274536 
	C195.580063,701.175476 193.986038,702.348450 194.340714,707.321899 
	C194.577591,710.643555 195.018112,713.952820 195.182312,717.276733 
	C195.285385,719.363281 196.053955,720.657043 198.079803,721.391785 
	C208.871658,725.305420 219.574142,729.435242 230.576279,732.790039 
	C250.028976,738.721619 268.595245,747.011475 287.287445,754.931335 
	C290.460510,756.275757 292.629822,758.669006 292.193695,762.571350 
	C289.302002,763.746094 287.077240,762.274048 284.816864,761.436890 
	C275.916565,758.140503 267.120026,754.552124 258.159424,751.432800 
	C238.828033,744.703430 219.281982,738.559021 200.526138,730.284241 
	C196.911972,728.689697 195.994934,729.993225 196.004639,733.284302 
	C196.018387,737.949341 196.188110,742.621216 195.990738,747.277466 
	C195.803284,751.700256 197.639053,753.810364 201.989227,754.914795 
	C208.234436,756.500488 215.351379,756.378662 219.721359,762.551819 
	C220.215454,763.249756 221.447433,763.520813 222.394165,763.788635 
	C236.350784,767.737122 249.728928,773.364563 264.215027,778.171936 
M558.219604,433.918945 
	C557.105225,440.306580 558.217834,446.897705 557.151978,453.146362 
	C556.173401,458.883423 556.760193,463.918823 558.684021,469.169373 
	C561.500122,476.855225 568.684631,481.075134 572.933105,487.583801 
	C575.109009,490.917358 578.282898,492.583313 581.875488,493.490143 
	C594.803528,496.753540 607.040466,495.115692 618.088745,487.430237 
	C620.939392,485.447266 623.157471,482.446106 622.895752,478.564331 
	C621.798645,462.292206 625.944946,446.502350 627.363586,430.463135 
	C627.717407,426.462646 626.694580,424.228546 623.096680,423.384796 
	C618.073303,422.206818 613.375000,420.070618 608.297058,418.971008 
	C603.145081,417.855408 597.859375,416.783905 593.151306,414.060822 
	C590.844727,412.726654 590.329285,410.942078 591.179443,408.589264 
	C592.121277,405.983246 594.077637,406.446228 596.148743,406.869049 
	C601.132263,407.886505 605.332397,410.753754 609.951355,412.627808 
	C614.055359,414.293030 617.739868,417.424652 622.448608,414.098022 
	C626.084717,411.529266 630.795044,410.614746 633.733704,406.949249 
	C637.480103,402.276154 641.311401,397.661865 644.856934,392.839020 
	C650.274902,385.469360 655.012634,377.548309 660.896729,370.586151 
	C667.786987,362.433655 672.750916,353.281952 676.461243,343.524994 
	C680.703918,332.368225 683.616455,320.711029 687.699890,309.486969 
	C692.863342,295.294098 696.353149,280.848511 696.741699,265.708862 
	C696.801758,263.368164 696.975647,260.931641 698.668823,259.125397 
	C702.115601,255.448334 700.175232,253.673889 696.488403,252.387863 
	C695.074280,251.894562 693.679932,251.335190 692.245667,250.910339 
	C666.435974,243.265137 640.620667,235.638824 614.809021,228.000076 
	C611.018127,226.878204 607.291016,226.990845 603.502319,228.147919 
	C592.999207,231.355515 582.520203,234.665039 571.923340,237.534180 
	C565.234863,239.345123 560.802612,241.127457 559.479248,249.915680 
	C557.599915,262.395721 552.190369,274.324249 548.582275,286.574738 
	C547.329590,290.828094 545.747009,294.717651 542.657104,297.919495 
	C539.013184,295.495514 537.337646,296.141541 535.879211,301.444489 
	C533.938538,308.501007 530.059326,314.458557 526.099182,320.413055 
	C523.154663,324.840393 519.820496,329.036896 517.190430,333.639374 
	C510.694672,345.006653 503.358215,355.541534 492.130066,362.841858 
	C488.702332,365.070435 486.306000,368.370819 487.890839,372.554260 
	C489.558533,376.956421 493.786743,377.723114 497.942566,377.312500 
	C505.551361,376.560608 513.126038,375.466736 520.719788,374.556152 
	C522.079041,374.393188 523.603882,373.494385 524.750488,375.061096 
	C524.416809,376.385345 523.273926,376.556732 522.388062,376.633789 
	C514.208923,377.345154 506.358734,379.522614 498.501984,381.731506 
	C497.098938,382.125977 495.513489,382.091583 494.036774,381.966309 
	C487.513306,381.413147 486.481171,382.699188 486.175415,389.318939 
	C485.463806,404.727570 484.376007,420.118805 483.421417,435.832703 
	C486.411926,435.664032 487.417206,437.205200 485.890717,440.330109 
	C484.753479,442.658081 485.723877,444.820648 486.428009,447.076660 
	C489.511810,456.957214 498.633392,462.728943 503.069275,471.680695 
	C503.324249,472.195312 504.092163,472.564697 504.699890,472.778839 
	C511.246826,475.085541 517.671204,478.081604 524.800598,477.822174 
	C527.565369,477.721558 531.169922,478.042145 531.355835,473.515350 
	C531.390869,472.662811 532.184509,471.895050 533.086853,472.028320 
	C536.549561,472.539795 538.977905,470.044403 541.859802,468.990692 
	C549.367615,466.245697 550.672791,463.697723 549.870667,455.730713 
	C549.788940,454.918579 549.742554,454.068085 549.887329,453.273193 
	C551.773438,442.915497 550.750854,432.414673 551.429077,421.996429 
	C551.759583,416.918915 550.932068,411.687408 551.837646,406.747223 
	C552.813293,401.425293 548.137390,394.914398 542.601746,395.381866 
	C541.205078,395.499817 539.768799,396.602234 538.134521,394.968414 
	C539.919067,391.572479 543.438904,390.617706 546.496643,390.731171 
	C555.231750,391.055267 559.909180,385.840088 564.106201,379.078003 
	C562.843750,377.950348 561.469788,377.266846 559.668335,377.664642 
	C555.937683,378.488464 552.181213,379.209869 548.479980,380.149078 
	C541.216248,381.992279 533.104065,382.430389 529.513611,380.864410 
	C538.491150,378.058868 547.105591,375.132629 556.432007,375.384369 
	C566.438049,375.654480 573.992798,371.937256 578.675476,362.510132 
	C581.327026,357.171967 586.624390,353.815186 591.311462,350.379120 
	C593.699646,348.628387 595.849243,347.324615 596.541077,344.387878 
	C595.658569,342.993835 592.847412,343.700684 593.254578,341.204346 
	C593.493225,339.741058 594.541748,338.319122 595.865479,338.706573 
	C600.485840,340.058929 601.176270,336.487701 602.424927,333.765106 
	C604.905762,328.355927 606.643860,322.524689 609.694397,317.475250 
	C615.855408,307.277069 620.061584,296.168304 623.301270,284.988770 
	C626.724792,273.175049 628.671448,260.777802 629.175049,248.317596 
	C629.266479,246.056168 630.740356,244.980774 632.820129,245.127960 
	C634.857544,245.272141 634.771484,246.855530 634.682129,248.495438 
	C634.458435,252.600632 635.000610,256.835083 634.188660,260.803528 
	C632.143494,270.799103 632.014160,281.086975 627.944031,290.805023 
	C619.259644,311.540100 610.204224,332.068176 599.849670,352.034363 
	C597.641846,356.291687 595.085693,360.013092 591.444519,362.999390 
	C588.982300,365.018799 586.890869,367.362305 584.708557,369.656464 
	C577.725769,376.997162 571.673584,385.249420 563.364624,391.307098 
	C560.370361,393.490143 560.614685,395.729279 564.157715,397.198486 
	C568.460876,398.982971 572.825745,400.618591 577.124390,402.413513 
	C579.214783,403.286407 581.404358,404.808014 580.538330,407.199493 
	C579.531921,409.978729 577.159424,407.993591 575.389954,407.588806 
	C574.430420,407.369324 573.543152,406.837585 572.619934,406.454895 
	C569.161011,405.020966 566.090515,402.471466 561.697693,402.562042 
	C560.767273,405.522308 560.766541,408.408569 560.634460,411.405579 
	C560.315125,418.650696 561.164551,426.062073 558.219604,433.918945 
M490.890045,535.645203 
	C511.964539,540.807495 531.070496,551.552795 552.131104,556.915039 
	C572.802246,562.178162 592.102173,571.645020 612.464722,577.969360 
	C619.614502,580.189941 626.893982,582.264221 633.664185,585.382385 
	C650.123413,592.962952 668.380249,594.624512 685.014893,601.552307 
	C688.731567,603.100342 690.505371,601.453979 691.192383,597.169922 
	C692.166016,591.098389 691.085205,585.231567 690.927979,579.272705 
	C690.660522,569.138550 690.932373,558.975952 690.280701,548.870239 
	C689.679260,539.543701 689.945068,530.247864 690.262817,520.962463 
	C690.975159,500.145538 691.387512,479.350830 689.716614,458.558167 
	C689.509705,455.984589 688.484070,454.190613 686.448303,452.737610 
	C676.823730,445.868011 668.358704,437.511688 658.435425,431.005005 
	C654.094238,428.158508 651.585999,428.746979 649.589844,433.491791 
	C647.724609,437.925293 648.196838,442.553436 648.063293,447.147705 
	C648.021118,448.598816 648.275818,450.192352 646.837402,451.174347 
	C645.409790,451.595123 645.382935,449.918793 643.940613,449.572968 
	C639.937866,460.162933 633.517395,469.790375 630.770142,481.015869 
	C629.490662,486.243866 626.770508,490.678406 622.265686,493.486786 
	C611.320496,500.310242 599.697754,505.181824 586.518982,501.003510 
	C574.423889,497.168732 562.223938,493.200317 556.784790,479.805878 
	C556.092163,478.100159 555.359497,475.976746 553.894714,475.767120 
	C539.105225,485.700562 523.702759,486.036896 507.975067,482.438873 
	C490.317169,478.399292 482.257446,464.879761 477.571106,448.547760 
	C474.368896,449.795990 473.021057,451.623230 471.680420,453.525787 
	C468.989349,457.344635 465.201233,460.036713 460.859222,461.161865 
	C444.417542,465.422180 430.175110,460.622650 418.533020,448.849945 
	C413.200378,443.457489 408.997498,436.864685 404.753998,430.501617 
	C400.487549,424.104095 400.831757,424.044037 394.921448,428.688293 
	C388.020630,434.110840 380.688904,437.610138 372.048950,432.228088 
	C370.542145,431.289520 368.878845,431.380280 367.198334,431.539886 
	C358.354279,432.379822 350.108459,429.423157 344.226715,423.673645 
	C337.970062,417.557617 330.427002,411.064026 331.822388,400.393707 
	C331.920044,399.646973 331.931366,398.696228 332.183838,398.772156 
	C313.067596,410.881989 294.512390,416.844482 273.377625,404.712036 
	C272.478302,433.417480 273.067719,461.779633 275.438141,490.923615 
	C281.346039,488.589539 285.380646,485.272522 289.025940,481.450806 
	C291.682648,478.665497 295.530731,476.224365 298.545197,477.442871 
	C306.929688,480.832031 315.960602,481.071838 324.419128,484.079315 
	C340.723755,489.876526 356.844238,496.136597 373.022980,502.253601 
	C375.979706,503.371490 379.059418,505.099121 382.133484,504.346436 
	C386.445526,503.290619 390.463257,503.934601 394.395172,505.207642 
	C410.706116,510.488556 426.952148,515.969604 443.227844,521.359619 
	C452.235657,524.342773 461.170074,527.594055 470.297577,530.153870 
	C476.886566,532.001709 483.943695,532.123657 490.890045,535.645203 
M717.165222,208.459732 
	C710.849060,206.364319 704.558716,204.186951 698.212158,202.188110 
	C674.559998,194.738937 650.258484,189.475601 626.890747,181.070541 
	C607.931824,174.251266 588.653748,168.501007 569.275208,162.991547 
	C553.595032,158.533554 537.606079,155.146072 522.262207,149.472076 
	C511.659271,145.551193 500.839478,142.218414 490.221375,138.336258 
	C472.523956,131.865738 453.921204,128.481659 436.158600,122.246170 
	C431.783997,120.710495 427.329254,118.630943 422.824463,118.383659 
	C409.453430,117.649696 397.264252,112.759010 384.663452,109.086632 
	C363.232117,102.840660 343.199463,91.852676 320.458496,90.039879 
	C319.651062,89.975517 318.875824,89.544006 318.078949,89.305847 
	C306.446228,85.829384 294.911896,82.060562 283.010559,79.466385 
	C275.882904,77.912727 269.192352,76.500359 262.816925,81.571716 
	C261.194092,82.862640 258.865479,83.265808 256.861908,84.078751 
	C249.246338,87.168739 241.907211,90.791756 233.847580,95.237206 
	C238.762680,97.249580 242.527435,98.973923 246.414413,100.353996 
	C283.892761,113.660728 321.885864,125.413185 359.738159,137.580704 
	C371.107666,141.235397 382.979126,143.301086 394.459290,146.648087 
	C403.063507,149.156586 411.519165,152.164505 420.168152,154.597366 
	C432.777649,158.144287 445.243958,162.206238 457.741028,166.144653 
	C464.052094,168.133575 469.850311,172.630325 477.092346,169.823471 
	C477.591034,169.630188 478.457886,169.943512 478.968689,170.292084 
	C485.292389,174.607605 492.726379,176.218689 499.819519,178.412415 
	C528.583069,187.308182 557.441345,195.876526 585.617859,206.572693 
	C610.642883,216.072571 637.288330,220.137512 662.313965,230.095093 
	C676.162537,235.605377 691.145874,239.164902 706.049927,241.941269 
	C710.809631,242.827927 715.608948,243.967407 720.212280,241.480606 
	C730.893738,235.710342 741.539795,229.874191 752.173401,224.016144 
	C753.297974,223.396652 754.546936,222.680252 754.402161,220.135223 
	C742.779358,215.390945 729.878479,213.433670 717.165222,208.459732 
M507.603333,135.779312 
	C513.330627,137.530640 519.500488,137.644455 525.078369,139.346817 
	C537.000244,142.985367 548.831055,146.944519 560.954651,149.861328 
	C579.294983,154.273865 596.993774,161.960632 616.601501,159.936401 
	C624.673096,159.103134 632.881836,159.390732 641.026123,159.108978 
	C664.798767,158.286636 688.665405,159.967468 712.322937,156.165756 
	C714.338684,155.841797 716.564758,156.957306 718.842590,155.041626 
	C707.048218,150.213211 695.901062,144.648331 683.830505,141.384827 
	C664.734131,136.221771 645.543030,131.382050 626.567017,125.809814 
	C612.685974,121.733719 599.223877,116.217857 585.317688,112.244781 
	C573.833801,108.963791 561.978699,107.077202 550.590759,103.224434 
	C525.839966,94.850784 501.135315,86.286583 475.776154,79.865898 
	C462.399933,76.479172 448.415222,74.571274 436.125183,68.278343 
	C424.940979,62.551659 412.907288,60.157536 401.210205,56.583492 
	C383.949951,51.309620 365.981873,48.489746 348.806427,42.821239 
	C327.474182,35.780834 306.258026,28.387939 285.008942,21.097139 
	C281.312927,19.829008 279.311798,20.897669 279.265106,25.187172 
	C279.136383,37.012917 279.347717,48.842087 279.375732,60.670017 
	C279.382568,63.558018 281.042450,64.713028 283.560150,65.401611 
	C287.895203,66.587234 292.203766,67.882156 296.482849,69.257454 
	C307.402924,72.767128 318.155396,76.939392 329.265259,79.661285 
	C335.313263,81.143028 341.016083,83.043633 346.744568,85.374184 
	C372.054688,95.671204 397.953674,104.219658 424.418762,111.081917 
	C437.595917,114.498680 451.212860,116.316650 463.907745,121.490799 
	C477.887054,127.188431 492.471985,130.994034 507.603333,135.779312 
M684.011780,918.886292 
	C690.106262,913.711792 695.380310,907.725708 700.847290,901.927002 
	C704.041809,898.538635 707.278503,895.179810 710.664490,891.986145 
	C712.448914,890.303101 714.825439,889.259094 716.890686,891.391907 
	C718.866089,893.431824 716.769470,895.143127 715.605652,896.559814 
	C712.644592,900.164246 709.329895,903.446045 705.683594,906.385376 
	C698.407593,912.250610 691.621033,918.621765 685.774170,925.944092 
	C683.757202,928.470093 682.216797,931.173218 682.533936,934.590759 
	C683.837646,948.639893 683.976196,962.731140 683.980530,976.824280 
	C683.981567,980.147888 684.084229,983.388550 686.240173,986.462708 
	C692.777222,982.975220 697.018982,977.316895 701.772827,972.287537 
	C716.958130,956.221924 731.612610,939.654236 747.548645,924.299255 
	C750.768738,921.196533 754.419373,918.057678 756.305542,914.174805 
	C758.702820,909.239685 762.275635,905.941040 766.457275,902.928284 
	C767.941406,901.859070 769.412537,900.852661 770.618530,899.403320 
	C781.041565,886.878357 791.495789,874.378845 802.028503,861.946106 
	C803.932495,859.698547 805.325745,857.125000 805.523132,854.399536 
	C805.953613,848.457642 806.036438,842.460510 805.784729,836.506042 
	C805.328430,825.711487 804.939880,814.885132 803.739929,804.159668 
	C802.683899,794.720337 805.859009,785.442932 803.917358,775.995911 
	C802.941162,771.246460 802.355774,770.636963 797.963928,773.073975 
	C796.416687,773.932556 795.256470,776.109070 792.901123,775.156860 
	C792.795898,773.037598 794.515198,772.578857 795.462280,771.515686 
	C798.969360,767.578979 803.120911,763.982788 801.895508,757.750244 
	C801.002930,753.210144 799.043762,751.816284 794.711487,753.190552 
	C783.799500,756.651855 776.347351,764.906372 768.339355,772.367310 
	C767.358337,773.281372 766.806030,774.578735 768.017517,776.126343 
	C771.254639,775.385681 774.233032,773.141968 778.553528,773.650696 
	C777.272278,778.296265 781.138977,779.003540 784.270569,780.383850 
	C783.178772,783.056580 781.146667,784.234131 779.237061,785.523315 
	C761.721252,797.348633 744.165894,809.115967 726.703064,821.018921 
	C719.009583,826.262878 711.311279,831.536621 703.993652,837.279114 
	C700.460266,840.051941 695.025146,842.403992 698.061401,849.162720 
	C693.722168,848.681335 689.898010,848.664001 686.304382,847.745239 
	C682.635376,846.807190 681.405029,847.955200 681.153381,851.428406 
	C680.393494,861.912964 681.115845,872.390137 681.177307,882.869934 
	C681.183105,883.854797 681.273438,884.900818 683.195007,885.679504 
	C689.187988,878.352783 696.770264,872.222656 703.973022,865.686584 
	C711.012207,859.299072 716.924805,851.422668 726.159485,846.654968 
	C727.155579,851.080139 724.893982,853.204590 723.082458,855.101013 
	C711.587769,867.134766 700.406555,879.495300 687.858093,890.472961 
	C680.966370,896.502075 678.612549,910.755432 684.011780,918.886292 
M482.438538,918.823425 
	C490.300140,922.534851 498.830811,924.377747 506.883698,927.525696 
	C531.353271,937.091125 555.713318,946.924194 579.674561,957.725342 
	C591.701538,963.146851 605.204895,964.726013 616.979309,970.260437 
	C634.976318,978.719788 654.606567,981.091858 673.012451,987.723633 
	C674.128906,988.125916 675.468262,989.029907 676.989563,987.670105 
	C676.548462,981.908752 676.083435,975.974976 675.644958,970.039246 
	C675.462830,967.573853 673.611816,966.724915 671.711121,966.048523 
	C660.423767,962.032043 649.089111,958.146545 637.828796,954.056274 
	C631.142090,951.627380 624.177917,950.297668 617.385620,948.367554 
	C612.183350,946.889282 607.170227,944.474304 601.974670,942.679810 
	C597.249390,941.047729 592.126831,940.941772 587.643372,938.508972 
	C573.094177,930.614014 556.900879,926.739685 541.909790,919.900574 
	C537.224731,917.763306 532.423462,915.582214 527.441528,914.452454 
	C514.740845,911.572266 502.508789,907.326904 490.365509,902.770325 
	C475.567627,897.217590 460.834747,891.492065 446.058899,885.880371 
	C429.417084,879.559937 412.234894,874.752930 395.889465,867.547852 
	C391.008331,865.396240 386.344543,861.638306 380.499237,862.477295 
	C378.221100,862.804382 376.272919,862.530518 374.200897,861.773499 
	C363.872833,858.000000 353.823853,853.560730 343.709564,849.264771 
	C330.361450,843.595276 316.131378,840.221985 302.797028,834.655029 
	C273.759247,822.532166 244.639053,810.635315 215.240158,799.426758 
	C209.628265,797.287170 204.340347,793.886841 198.069397,793.720642 
	C194.896332,807.205994 198.821304,815.569458 210.845245,820.394653 
	C222.586380,825.106201 234.482529,829.432861 246.326691,833.885742 
	C253.959595,836.755371 261.496735,839.971191 269.300842,842.271790 
	C279.994171,845.424194 290.637543,848.696838 301.070374,852.601624 
	C314.299622,857.553101 327.408325,862.749939 340.359070,868.476318 
	C351.334473,873.329346 362.588470,877.835510 374.233154,881.416321 
	C391.519470,886.731995 408.375061,893.545227 425.267426,900.149719 
	C443.686005,907.351013 462.293976,914.234802 482.438538,918.823425 
M343.704376,408.791626 
	C348.185089,412.826508 354.554810,413.851868 358.557373,418.172150 
	C364.779633,416.967346 370.654572,415.367096 376.783752,414.520508 
	C386.543671,413.172455 397.567047,412.765686 399.546783,399.344696 
	C399.591248,399.043304 399.943848,398.799591 400.051239,398.493378 
	C401.500610,394.360657 398.892365,390.879120 394.626526,391.292023 
	C389.006744,391.835907 383.397766,392.502472 377.771698,392.965271 
	C375.637604,393.140839 373.180084,394.082642 371.409760,391.558533 
	C372.427734,389.752838 374.120880,389.389557 375.701569,389.141541 
	C381.120605,388.291199 386.554443,387.522583 391.997406,386.840363 
	C401.090179,385.700745 400.740112,385.709686 401.133118,376.351562 
	C401.500092,367.613251 398.456787,358.781555 402.293427,350.102020 
	C398.781372,348.031708 394.963745,347.959259 391.747528,346.156799 
	C384.619629,342.162201 375.818024,342.001282 369.276886,336.498474 
	C368.656006,335.976074 367.335876,336.197113 366.344116,336.222015 
	C364.448486,336.269623 362.725250,335.821655 361.131927,334.795074 
	C356.686584,331.930969 351.408478,331.447235 346.561798,329.728180 
	C344.258881,328.911377 342.719818,329.691132 341.863342,332.007141 
	C341.113007,334.036163 340.685181,336.075073 340.366699,338.244354 
	C338.362976,351.893890 336.130463,365.510651 333.858551,379.118988 
	C333.577942,380.799896 333.140808,383.260345 330.574402,382.529968 
	C328.254364,381.869751 328.749908,379.637024 329.178009,377.847229 
	C330.247375,373.376312 329.740204,368.887573 329.376526,364.417480 
	C328.308197,351.285919 329.756226,338.266144 330.540436,324.647308 
	C329.722992,323.609375 327.846405,323.599457 326.088287,323.138367 
	C319.273926,321.351105 312.486267,319.458832 305.708740,317.534882 
	C294.124939,314.246521 283.607269,306.572327 270.608185,309.045715 
	C269.897858,309.180878 269.063324,308.536713 268.264130,308.353424 
	C264.974457,307.599060 264.012054,308.924744 263.208527,312.264893 
	C261.855652,317.888397 263.295776,323.356903 262.858063,328.864166 
	C261.703461,343.391022 258.973938,357.776093 260.037842,372.501587 
	C260.569611,379.861969 264.997955,384.739960 269.992126,388.231903 
	C273.875305,390.947021 277.939453,393.480896 281.551697,396.621307 
	C287.233307,401.560699 294.543365,403.093140 301.127045,401.930481 
	C309.405029,400.468658 317.994293,398.103363 323.951263,390.768768 
	C326.608765,387.496704 328.698181,388.293182 330.337952,392.384857 
	C330.523468,392.847839 330.558685,393.381226 331.245728,393.349823 
	C332.213531,392.360626 331.082245,390.113007 333.584869,389.824371 
	C335.503876,392.676208 336.519226,395.965454 337.389496,399.331268 
	C338.325165,402.949951 339.789581,406.265228 343.704376,408.791626 
M718.533386,272.124969 
	C712.230408,274.559662 710.282043,279.783051 709.193420,285.893707 
	C708.440186,290.122070 706.680298,294.134918 705.152405,298.192810 
	C699.536438,313.108368 692.794006,327.597046 689.634033,343.423340 
	C686.325623,359.992828 679.728821,375.441650 671.538147,390.214172 
	C668.391785,395.888947 663.880981,401.042206 664.118530,408.913544 
	C673.127625,403.569916 682.667664,400.146545 691.109863,394.485962 
	C696.761963,390.696075 702.370117,386.667511 708.486450,383.780792 
	C719.766907,378.456818 730.571960,372.309875 741.570068,366.487244 
	C750.420593,361.801636 752.702759,355.441437 752.206604,345.960907 
	C751.225464,327.210327 750.843811,308.420441 750.152222,289.647919 
	C749.652283,276.078461 749.413879,262.434967 751.504089,248.909302 
	C751.719116,247.518341 751.270935,246.179337 749.883057,245.558441 
	C748.728394,245.041885 747.340698,245.277863 746.698608,246.292664 
	C744.827026,249.250778 741.566833,250.451218 739.187134,252.663086 
	C737.163818,254.543640 733.860962,255.728867 733.346130,258.539795 
	C732.596313,262.633942 729.690796,264.322784 726.740723,266.119934 
	C724.032532,267.769745 721.336548,269.398590 718.533386,272.124969 
M217.093155,262.811584 
	C212.783371,265.420013 208.328354,267.886841 206.330902,273.488037 
	C211.527206,274.987518 215.446991,279.140015 221.235641,277.018280 
	C222.881912,276.414886 224.944046,277.490784 225.861877,279.291107 
	C227.208496,281.932495 229.573257,282.350769 232.107620,282.673981 
	C237.129517,283.314545 242.108658,284.317627 248.542862,283.507141 
	C244.885010,287.426605 246.877243,288.279297 249.406158,289.158813 
	C254.906998,291.071899 260.360229,293.124573 265.808929,295.183685 
	C268.445343,296.179993 270.399200,295.803589 272.410309,293.520660 
	C275.328186,290.208344 276.587891,285.758575 281.127686,282.777740 
	C271.750336,281.671844 263.359558,288.103882 255.073517,282.927002 
	C263.128662,280.364227 271.371643,279.896393 279.634460,279.761810 
	C281.542664,279.730682 283.836975,279.884369 284.707458,278.366791 
	C286.710175,274.875275 289.287567,272.026642 294.090424,269.514069 
	C286.875732,269.407654 269.672821,272.723236 267.277527,274.400543 
	C269.881073,274.953430 272.999573,272.862152 275.072174,275.973114 
	C266.651886,279.938446 251.807587,278.019318 242.839325,269.706482 
	C244.309906,266.274078 248.742279,267.081329 250.747055,264.422699 
	C249.843002,262.032928 246.512619,263.109222 245.437317,259.772125 
	C250.026230,258.230408 254.518173,258.241150 258.659210,258.867004 
	C260.300201,260.647675 257.205872,261.457062 258.701691,262.717316 
	C262.153381,265.438660 265.396973,262.279053 268.826752,262.380493 
	C277.919403,262.649475 287.043854,262.222809 296.141754,261.784363 
	C301.064026,261.547211 304.665527,257.891052 304.856934,252.706604 
	C297.782562,255.163605 290.302704,254.830719 283.728424,258.072296 
	C277.358612,261.213104 271.138062,260.237396 263.605469,258.889771 
	C268.467255,257.224915 272.235199,255.934601 276.727081,254.396393 
	C270.632019,253.265854 263.760498,256.299896 261.298126,248.426926 
	C262.440033,247.010391 264.027405,247.078247 265.467194,246.787125 
	C281.260468,243.593750 297.465149,242.599487 312.965759,237.804337 
	C316.431122,236.732300 319.294189,235.343079 320.406830,231.027267 
	C314.090210,231.440521 308.469421,234.512299 302.150696,233.656281 
	C303.000275,229.583405 305.570770,228.642639 308.472351,228.143082 
	C311.422241,227.635208 314.418243,227.332047 317.324005,226.643570 
	C323.954010,225.072632 325.991943,222.706406 327.084290,215.461273 
	C317.728302,214.371872 308.911011,220.457718 298.912903,218.042801 
	C301.220825,215.212006 303.967438,215.020279 306.446564,214.290329 
	C313.934570,212.085510 321.906952,211.837952 329.148376,208.607742 
	C333.567047,206.636673 334.459229,204.573700 332.562225,200.201874 
	C333.634125,199.093033 335.764801,198.925461 335.647644,196.076263 
	C323.542114,196.467178 311.664490,199.917465 299.508484,198.939163 
	C310.723694,194.902298 322.374908,193.221497 334.054443,191.698959 
	C336.113159,191.430573 338.356720,191.662338 339.476257,188.108353 
	C314.255402,191.964142 289.785187,196.578308 264.246674,198.064835 
	C265.527802,194.451675 267.807220,194.299774 269.846466,194.022507 
	C283.288483,192.194977 296.312378,188.227127 309.835785,186.628876 
	C318.021271,185.661469 326.093719,183.454620 334.317047,182.290802 
	C337.287964,181.870331 340.501251,181.410583 343.230286,178.412674 
	C318.701416,180.961227 295.094269,185.732132 271.145935,187.115891 
	C271.017944,186.281586 270.889984,185.447281 270.762024,184.612976 
	C295.417664,178.772125 320.898621,176.920593 345.839813,171.126968 
	C343.514435,169.001602 342.565735,167.364197 344.808014,165.491455 
	C341.487671,163.159592 339.003418,165.736526 336.386383,166.240372 
	C321.826599,169.043503 306.984680,169.682495 292.405762,172.220688 
	C287.126099,173.139862 281.754852,173.923218 276.527161,173.496094 
	C272.057617,173.130936 270.619659,175.033173 269.404785,178.515244 
	C266.598236,186.559433 262.774780,194.179825 258.189667,201.303207 
	C249.998795,214.028397 241.506699,226.565735 232.457626,238.711884 
	C229.368469,242.858322 226.907349,247.277176 225.063278,252.215103 
	C223.681244,255.915833 219.590195,258.388916 219.080887,262.818359 
	C219.070709,262.906769 218.172485,262.893066 217.093155,262.811584 
M532.936951,782.601196 
	C541.187988,785.690552 549.386841,788.930176 557.706726,791.821411 
	C564.294983,794.110779 571.137695,795.684631 577.678101,798.090820 
	C587.826050,801.824280 597.678284,806.387329 607.896179,809.899597 
	C629.231628,817.233032 650.712524,824.145325 672.163635,831.138672 
	C675.728638,832.300781 679.228577,833.906738 683.074402,834.043274 
	C684.394470,826.790955 681.907410,822.402832 675.289490,821.007080 
	C668.534607,819.582397 662.274170,817.123474 656.305786,813.719604 
	C654.295227,812.572876 652.095703,811.677490 649.884644,810.975647 
	C639.256592,807.602173 628.659912,804.162292 618.099915,800.558899 
	C581.705750,788.140442 545.111328,776.305725 508.547577,764.388550 
	C493.659393,759.535950 479.417511,752.881531 464.318939,748.654297 
	C451.979126,745.199341 439.417725,742.443176 427.262604,738.441467 
	C404.648468,730.996399 383.042053,720.833130 360.493378,713.126770 
	C343.327332,707.260010 326.739227,699.539917 309.352631,694.518921 
	C283.469696,687.044373 257.779083,679.083069 232.335510,670.259583 
	C218.014084,665.293091 204.198196,659.134460 190.218582,653.328186 
	C173.316666,646.307983 155.694824,641.145691 138.204971,635.710022 
	C132.662582,633.987488 130.584503,635.732422 131.252991,641.544128 
	C131.769363,646.033325 134.835587,647.516663 138.525146,647.569641 
	C146.887970,647.689819 154.022125,654.003296 162.750748,652.184814 
	C163.447601,652.039673 164.484833,653.062256 165.229919,653.699036 
	C167.846802,655.935425 171.014618,656.896667 174.226410,657.825134 
	C179.485611,659.345398 184.898499,660.509766 189.943069,662.568115 
	C221.576736,675.475464 254.641144,684.047668 286.982635,694.801758 
	C299.983582,699.124695 312.462555,704.782593 325.934387,708.014465 
	C336.495331,710.548096 346.583008,715.379089 356.701080,719.551270 
	C385.151886,731.283020 414.256165,741.091187 443.629639,750.113831 
	C454.322479,753.398376 464.003845,759.138672 475.451691,760.877625 
	C484.422729,762.240417 492.544312,767.731079 501.547455,770.362366 
	C512.037109,773.428162 522.003601,778.283691 532.936951,782.601196 
M714.218323,457.156311 
	C714.203674,463.312317 714.160583,469.468384 714.179382,475.624298 
	C714.255676,500.600922 716.091980,525.509460 717.049866,550.451843 
	C717.809570,570.233826 717.179688,590.019531 716.138367,609.786926 
	C715.817993,615.868774 716.634949,621.894348 716.402832,628.045349 
	C715.580566,649.832947 717.154968,671.631531 718.459290,693.389954 
	C718.713928,697.638550 719.127380,702.081055 719.477234,706.131104 
	C721.770020,706.852234 723.353577,705.787415 723.407104,704.777710 
	C723.727783,698.726685 728.571960,695.730896 731.720398,691.568481 
	C732.947449,689.946289 732.526733,687.722107 732.650208,685.729797 
	C733.520691,671.678833 731.294495,657.741577 732.823547,643.494934 
	C734.379089,629.002319 731.394653,614.077454 732.624817,599.329041 
	C733.348511,590.653320 730.512573,582.350098 730.786133,573.641602 
	C731.266663,558.349426 730.662109,543.018311 730.337463,527.707153 
	C730.023621,512.906433 728.672119,498.079865 729.223083,483.318665 
	C730.359436,452.875336 730.574463,422.473236 728.768982,392.062500 
	C728.673279,390.451172 728.824158,388.654724 726.586304,387.606598 
	C721.927979,389.084564 718.499573,392.947266 714.230774,395.407074 
	C711.869507,396.767639 711.062073,398.534149 711.232788,401.135071 
	C711.668640,407.776184 712.001831,414.424377 712.339233,421.071594 
	C712.936646,432.843323 713.506897,444.616425 714.218323,457.156311 
M234.208984,432.573151 
	C234.798645,440.367920 235.320862,448.168488 235.995255,455.955933 
	C236.812698,465.395081 239.503647,474.639648 239.263351,484.178833 
	C238.839478,501.006409 239.332474,517.825439 240.821594,534.557861 
	C241.481766,541.975769 240.312088,548.590271 237.363235,555.148804 
	C235.525314,559.236511 233.604126,563.287170 231.794754,567.387268 
	C230.701706,569.864197 231.061844,572.048828 233.762390,573.196777 
	C236.204346,574.234924 238.763733,575.449585 240.914825,572.503540 
	C249.021606,561.400696 256.344910,550.077454 256.013367,535.433594 
	C255.863632,528.819397 254.839142,522.272217 254.647537,515.775024 
	C254.438538,508.687622 254.981781,501.473236 254.489548,494.359344 
	C252.538513,466.161499 250.875259,437.951355 249.663574,409.711395 
	C249.346954,402.331940 249.598251,394.826508 247.128021,387.317780 
	C243.929977,388.068573 241.085342,389.105103 238.176666,389.336548 
	C233.285385,389.725739 231.994141,392.063019 232.004700,396.811798 
	C232.030640,408.484314 233.652344,420.024750 234.208984,432.573151 
M668.422546,180.758286 
	C672.184692,182.538559 675.746033,183.395020 679.647400,180.592850 
	C681.838562,179.019150 685.065735,179.236618 687.390137,180.342758 
	C691.255066,182.181976 694.854492,181.112701 698.584717,180.533569 
	C699.896790,180.329849 701.197083,180.013657 702.515747,179.900635 
	C703.718079,179.797592 705.023193,180.010818 705.309448,181.406494 
	C705.595215,182.799652 704.525635,183.517487 703.335876,183.865540 
	C698.554199,185.264359 694.129211,188.828354 688.231995,185.568359 
	C688.723450,186.807693 688.805298,187.538055 689.073914,187.614807 
	C695.945679,189.578003 701.692810,194.051956 708.548218,196.127884 
	C718.022644,198.996887 727.625000,201.675522 736.513733,206.082550 
	C741.343079,208.476929 746.290100,210.436401 751.471558,211.330872 
	C756.812622,212.252884 761.738159,213.047241 763.461182,220.887543 
	C764.786926,207.191818 762.548767,195.359100 762.849731,183.300034 
	C757.379272,180.962906 760.673584,174.261658 756.966431,170.795242 
	C760.096313,169.001068 761.569946,172.127274 764.673706,172.191315 
	C764.060303,169.944794 767.937195,166.286530 763.504700,166.093033 
	C759.656250,165.925018 755.761108,164.911041 751.907288,165.361542 
	C738.387573,166.941925 724.909424,168.903931 711.372131,170.300644 
	C697.543396,171.727432 684.068237,174.855179 670.578369,177.968597 
	C669.422729,178.235321 666.821838,177.629166 668.422546,180.758286 
M708.495728,606.405273 
	C709.068298,599.902161 708.062256,593.442749 707.959412,586.961121 
	C707.497925,557.857788 706.923462,528.753601 706.860840,499.648712 
	C706.846252,492.865082 703.803406,488.200165 699.919006,483.253662 
	C699.558899,483.872406 699.289246,484.127319 699.268311,484.401184 
	C697.418884,508.631500 698.919495,532.909790 698.833069,557.148621 
	C698.765808,576.016357 698.478516,594.990967 700.188660,613.925842 
	C701.257874,625.765198 700.263916,637.794739 700.987488,649.775818 
	C701.867004,664.338562 701.612610,678.973938 703.154785,693.518127 
	C703.336914,695.235840 702.795776,697.654358 705.574158,697.560425 
	C708.214783,697.471069 707.783569,695.136597 707.929138,693.374695 
	C708.517029,686.260986 708.049805,679.109497 708.396545,672.014526 
	C709.451843,650.420471 708.469604,628.840271 708.495728,606.405273 
M776.679504,719.218811 
	C783.480835,711.336548 791.510742,704.517456 797.721863,695.306152 
	C790.744629,690.455750 782.808594,689.067078 775.315125,686.671387 
	C773.721313,686.161865 772.261108,687.656189 770.833984,688.526917 
	C763.278809,693.136902 756.585388,698.911255 749.557068,704.227905 
	C743.514038,708.799133 737.638000,713.591309 731.860046,718.150146 
	C732.326843,720.006287 733.409119,720.492371 734.528015,720.827026 
	C744.255310,723.735779 753.785156,727.206299 763.194397,731.000916 
	C765.788635,732.047119 767.303833,730.811462 768.743530,729.040283 
	C771.249573,725.957092 773.733215,722.855591 776.679504,719.218811 
M786.886536,680.911377 
	C791.855286,682.807068 796.881470,684.567993 801.771545,686.648560 
	C804.760498,687.920166 806.676270,687.018188 808.746948,684.808289 
	C813.753174,679.465332 818.811768,674.148621 824.171814,669.168518 
	C827.449951,666.122803 829.595337,662.591675 831.459839,658.614685 
	C833.012512,655.302917 831.973755,653.612976 829.054810,652.334045 
	C823.472046,649.887878 818.471741,651.587952 814.108521,654.565979 
	C812.108887,654.212402 813.281982,651.717041 811.140442,651.687378 
	C810.232178,652.866699 808.262939,653.501892 808.120850,655.288574 
	C807.685242,660.764099 804.399048,663.930481 800.095520,666.795288 
	C795.260010,670.014282 790.809937,673.815063 786.219116,677.397217 
	C784.872559,678.447876 783.921143,679.612671 786.886536,680.911377 
M215.403107,334.898254 
	C219.963089,334.500458 221.350494,331.717865 220.191742,327.747955 
	C219.537338,325.506042 220.203766,323.592560 220.236664,321.608215 
	C220.293854,318.157867 222.072113,314.420105 219.796631,310.607971 
	C216.557465,311.287292 213.326675,311.910583 210.123230,312.652008 
	C206.959961,313.384186 203.778870,315.323883 200.226791,312.294342 
	C206.602524,307.816193 214.826843,308.387848 220.497559,303.536011 
	C219.558228,302.570984 218.893204,302.199005 218.324951,302.312347 
	C211.637451,303.646027 204.941864,304.954620 198.298904,306.488617 
	C195.697845,307.089264 195.604614,309.350250 195.509949,311.671906 
	C195.267456,317.619537 195.186844,323.564758 194.445755,329.511230 
	C193.964828,333.370087 191.329834,337.403168 194.528198,342.114410 
	C200.678391,337.929901 207.995483,337.602844 215.403107,334.898254 
M200.888977,362.600952 
	C207.170410,369.364166 214.113754,374.642120 224.018692,373.213684 
	C226.551086,368.674652 223.290665,367.188385 220.118652,365.669708 
	C221.196381,362.387756 225.659592,361.064301 224.007721,356.564178 
	C222.605560,352.744263 222.145798,348.483398 221.856979,344.376312 
	C221.562195,340.184174 219.416885,339.621948 216.194366,340.744598 
	C210.649155,342.676392 204.912262,343.597321 199.119919,344.097534 
	C194.748566,344.475067 193.775513,346.987305 194.560349,350.605469 
	C195.492401,354.902161 197.779266,358.587860 200.888977,362.600952 
M465.959473,202.337799 
	C450.240448,205.897690 434.559784,209.646332 418.638397,212.227829 
	C416.744202,212.534958 415.622345,213.269104 415.201691,215.196686 
	C414.380096,218.961899 412.806976,222.432083 410.961060,225.811752 
	C410.206451,227.193298 409.371857,228.778885 410.814819,230.998474 
	C417.307983,226.054810 425.825256,229.821838 433.163727,224.404800 
	C438.672028,220.338760 446.970703,219.093643 454.506287,218.301895 
	C456.617371,218.080093 458.298462,218.362778 459.112762,219.251755 
	C467.081543,213.083786 477.905579,215.852051 485.140778,209.166565 
	C462.160675,211.214172 440.079010,218.118652 417.111084,221.106903 
	C421.256348,219.957993 422.666351,215.137451 426.664185,214.453384 
	C445.308746,211.263016 463.324890,204.937973 482.281189,203.334290 
	C484.102325,203.180237 486.647827,203.334106 486.329865,200.870728 
	C485.960114,198.006195 483.209198,198.930969 481.462585,199.397430 
	C476.637024,200.686142 471.855896,202.094925 465.959473,202.337799 
M226.542969,311.682892 
	C227.049408,317.894806 227.555847,324.106720 228.106979,330.866913 
	C236.629333,329.255219 244.514359,326.202667 252.580414,323.844055 
	C254.536545,323.272034 254.853424,321.584503 254.752594,319.812469 
	C254.443253,314.376221 254.224503,308.958038 254.918289,303.514862 
	C255.328659,300.295288 253.976913,298.799927 250.487396,300.027069 
	C243.442459,302.504486 236.353928,304.858215 229.278244,307.247742 
	C227.468414,307.858978 226.565552,309.075256 226.542969,311.682892 
M770.595459,647.972351 
	C769.823120,649.304260 769.442505,650.672852 769.746033,652.260010 
	C770.284241,655.074463 768.835388,656.992920 766.729370,658.639099 
	C763.983765,660.785095 761.393555,663.135681 758.591919,665.202209 
	C756.662231,666.625671 756.020142,668.176697 757.160645,670.315552 
	C758.284607,672.423462 760.149658,672.100037 761.963989,671.614197 
	C763.542969,671.191345 764.848694,669.655945 766.615173,670.092590 
	C771.415344,671.279114 774.356323,668.294067 777.552979,665.593323 
	C781.592224,662.180725 785.373657,658.044250 790.039368,655.909058 
	C794.750854,653.752747 799.233765,651.810852 802.422180,647.767151 
	C796.451111,644.616821 790.264160,643.048340 783.345459,642.187195 
	C777.116028,641.411804 774.309570,643.908142 770.595459,647.972351 
M261.018860,463.090332 
	C259.912750,477.068756 262.514374,528.128967 264.821899,531.276367 
	C267.219818,522.697693 272.871582,514.654785 264.721588,506.088593 
	C268.604889,501.718384 267.921143,496.519470 267.278717,491.117737 
	C266.495758,484.534058 265.439758,477.768585 266.165588,471.267517 
	C267.397888,460.230011 265.641479,449.358124 265.747833,438.409790 
	C265.791809,433.879883 263.252197,430.137848 260.765930,425.982330 
	C259.473145,429.944244 258.843140,433.388550 259.398804,436.879242 
	C260.737000,445.285950 260.524323,453.779480 261.018860,463.090332 
M229.464645,355.708954 
	C229.894867,356.858246 228.817780,358.422913 230.720596,359.424011 
	C237.833191,356.854095 245.142624,354.223633 252.442673,351.567413 
	C254.091064,350.967621 254.805771,349.544708 254.549774,347.994293 
	C253.781021,343.338226 254.909286,338.743622 254.791443,334.105011 
	C254.700195,330.513855 252.892212,329.436310 250.073883,330.565979 
	C243.734741,333.106903 237.126038,334.742310 230.678589,336.901611 
	C228.543472,337.616760 227.192230,338.835052 228.258926,341.385162 
	C230.106140,345.801331 229.273392,350.460815 229.464645,355.708954 
M292.834595,508.208710 
	C297.933441,505.072418 304.046356,503.714447 309.191254,499.469666 
	C305.886505,496.389221 301.814423,496.641632 298.854279,494.798004 
	C292.161804,490.629761 287.434448,493.018555 281.976349,497.682159 
	C276.687347,502.201263 274.455475,507.060516 275.337982,513.703186 
	C275.532837,515.170105 275.296906,516.818604 277.088409,517.466736 
	C278.716278,518.055725 279.878174,517.097290 281.134979,516.197754 
	C284.775726,513.591919 288.501007,511.104218 292.834595,508.208710 
M742.704102,627.518616 
	C741.430298,627.804932 740.522339,628.636536 740.436951,629.869629 
	C739.869629,638.068237 739.368774,646.275696 742.104492,655.699097 
	C750.603821,647.806091 760.224548,643.139282 768.072693,636.137695 
	C767.908447,635.585449 767.744141,635.033264 767.579834,634.481018 
	C759.541443,632.143127 751.503113,629.805237 742.704102,627.518616 
M781.159302,726.627502 
	C777.705322,730.222656 774.167175,733.720215 770.862427,737.478699 
	C766.933716,741.946777 768.318115,746.519104 768.795044,751.952087 
	C778.188660,741.904053 787.077393,732.578247 795.731995,723.039917 
	C798.772522,719.688965 800.467102,715.434692 801.683289,711.061768 
	C802.320251,708.771179 803.460876,706.464294 801.864746,703.878235 
	C801.053345,704.350464 800.357300,704.557983 799.952820,705.020447 
	C793.825317,712.027283 787.735901,719.067444 781.159302,726.627502 
M752.079773,758.583191 
	C745.937317,764.639282 739.810669,770.711426 733.647583,776.746399 
	C728.703735,781.587341 728.065369,784.790771 731.011963,790.919128 
	C732.426453,790.901367 733.428650,790.006958 734.358887,789.088562 
	C744.047913,779.522888 753.183594,769.437195 762.391052,759.414124 
	C765.980652,755.506592 765.651672,751.922241 762.643066,747.517395 
	C759.149048,751.184326 755.862366,754.633606 752.079773,758.583191 
M764.871216,230.010132 
	C764.704590,228.319382 765.452820,226.176392 762.778564,225.685852 
	C760.710999,226.840561 761.658447,228.561127 761.852478,230.129425 
	C763.504028,243.476883 764.517456,256.951324 763.735901,270.306549 
	C763.111694,280.973175 764.792175,291.496460 764.036560,302.088287 
	C763.221497,313.513275 767.335205,325.016449 762.938416,336.957581 
	C766.953979,336.153687 770.390686,335.819641 769.526733,330.923462 
	C767.585938,319.925049 767.395386,308.857147 767.232056,297.703857 
	C766.905823,275.427002 765.699707,253.163025 764.871216,230.010132 
M445.718475,202.274109 
	C449.529114,201.144928 453.527405,200.592148 457.092468,198.604034 
	C456.162750,197.340347 454.010712,199.054611 453.281738,196.669266 
	C463.306396,191.469681 474.809479,193.510834 485.213684,190.255493 
	C476.598450,189.969299 468.150452,191.037155 459.737915,192.434265 
	C448.117401,194.364151 436.543488,196.618912 424.879669,198.227402 
	C417.809235,199.202438 416.756348,200.109879 418.225739,207.736923 
	C427.315918,207.074341 435.813660,203.170303 445.718475,202.274109 
M251.596008,355.705383 
	C250.658737,356.033173 249.644180,356.225891 248.796814,356.710815 
	C243.517700,359.731659 238.615692,363.186523 232.326401,364.482666 
	C226.878021,365.605469 230.965469,370.295288 230.690781,373.287903 
	C230.415543,376.286438 233.376205,376.468689 235.400589,376.154541 
	C241.053482,375.277344 246.264694,373.239349 250.412979,369.041595 
	C252.081268,367.353424 252.960022,365.744110 250.199127,364.269501 
	C255.107285,360.379028 255.541687,358.185303 251.596008,355.705383 
M286.719635,167.876175 
	C300.377930,165.241455 314.063080,162.735092 327.676117,159.884369 
	C331.205688,159.145233 334.268555,158.782104 337.782501,160.278503 
	C343.675079,162.787842 348.099335,160.608673 349.719910,155.072861 
	C348.523163,153.707886 346.987976,154.166412 345.557678,154.411148 
	C322.663330,158.328827 299.774139,162.276657 276.881439,166.203903 
	C274.000244,166.698212 272.498901,168.072693 273.245789,171.550156 
	C277.653687,170.308640 281.764069,169.150925 286.719635,167.876175 
M688.782532,433.291168 
	C688.764282,431.136719 688.910828,428.965912 688.698547,426.830750 
	C687.876770,418.564850 677.467896,413.404175 670.572205,417.781982 
	C666.387634,420.438599 666.303223,422.193024 670.582153,424.980804 
	C675.066406,427.902435 679.065552,431.292358 682.504944,435.397980 
	C683.946350,437.118561 685.536865,438.834839 687.935852,439.160828 
	C689.293396,437.469055 688.667297,435.756805 688.782532,433.291168 
M830.544556,683.033997 
	C832.072021,681.503784 833.733154,680.083130 835.096802,678.418701 
	C837.366943,675.647888 837.922974,672.668335 835.640320,669.438171 
	C832.374756,670.447388 830.401245,672.727356 828.432312,674.930481 
	C823.785889,680.129272 819.466064,685.808960 814.422607,690.412292 
	C809.705200,694.718018 809.493347,698.579163 810.881714,704.268066 
	C818.355591,697.907654 822.969238,689.560913 830.544556,683.033997 
M696.422974,709.144470 
	C694.019775,712.511047 691.524658,715.817200 689.253906,719.270874 
	C688.188599,720.891113 685.679688,723.246582 688.742676,724.589172 
	C691.709656,725.889648 695.557983,729.570740 698.506470,725.813538 
	C702.565125,720.641479 705.564941,714.633301 708.960144,708.948486 
	C710.200928,706.870911 709.741882,705.151306 707.519104,704.003662 
	C705.328918,702.872986 703.728149,703.178284 702.894775,705.739319 
	C701.945129,708.657837 699.762512,709.324402 696.422974,709.144470 
M481.722107,222.505051 
	C483.139404,221.785904 485.016479,221.396301 484.255676,219.078400 
	C483.893036,218.934845 483.577454,218.686188 483.297913,218.721634 
	C482.313232,218.846436 481.315552,218.983566 480.367706,219.266510 
	C457.770264,226.012390 435.160736,232.657608 411.457550,234.437515 
	C407.696289,234.719940 405.518707,237.234909 404.663116,241.419846 
	C412.713654,239.442810 420.239929,237.589767 427.768585,235.746658 
	C445.509918,231.403381 463.252411,227.064804 481.722107,222.505051 
M203.881638,689.539795 
	C201.899506,686.271545 199.885757,683.021912 197.942596,679.730652 
	C194.912613,674.598511 189.919601,673.711792 183.699173,672.471741 
	C187.596863,679.355347 190.623657,685.249207 194.185211,690.799927 
	C196.600983,694.565002 205.456146,697.197388 209.135422,695.747559 
	C207.504654,693.841309 205.911469,691.979004 203.881638,689.539795 
M706.480408,807.970886 
	C704.017334,812.428223 699.061035,815.470337 698.529114,820.978394 
	C699.733093,821.781555 700.656555,821.762268 701.250549,821.166504 
	C707.464111,814.934143 714.856201,809.865295 720.015442,802.610718 
	C722.332031,799.353333 722.321472,795.624390 720.863831,791.248291 
	C714.883911,795.997681 711.628906,802.354309 706.480408,807.970886 
M396.851929,332.107239 
	C392.686646,333.360504 387.624969,330.597198 384.042816,335.244110 
	C391.381989,335.327087 398.488342,336.997528 405.662842,337.471924 
	C412.140533,337.900208 415.161865,334.855927 416.889374,328.201080 
	C410.592163,331.105957 404.008209,330.803497 396.851929,332.107239 
M431.159058,177.902832 
	C430.003601,178.006653 428.849487,178.129272 427.692474,178.211075 
	C422.039093,178.610748 421.714355,179.068771 423.079468,185.561661 
	C432.393585,181.456635 443.335175,183.111572 453.272034,176.203506 
	C445.139984,174.741852 438.661133,177.468979 431.159058,177.902832 
M696.189209,446.017090 
	C697.015747,448.464661 698.525208,450.206207 701.328857,451.208344 
	C702.565552,446.478912 701.496460,442.006195 701.920044,437.631195 
	C702.415222,432.516632 699.426025,430.683899 694.990540,429.473175 
	C693.042969,435.105896 695.202698,440.139984 696.189209,446.017090 
M664.046875,851.623779 
	C665.480530,851.800842 667.000305,852.409973 668.082947,850.879822 
	C667.917053,843.622986 667.296936,842.843201 658.590149,839.750427 
	C656.913025,839.154785 654.720520,837.246704 653.529480,840.190918 
	C652.560425,842.586304 653.857971,844.152405 656.222717,845.213989 
	C659.192627,846.547363 662.150818,848.075928 664.046875,851.623779 
M655.209839,855.079651 
	C653.487366,856.688843 654.125427,858.240234 655.768250,859.115540 
	C659.942139,861.339294 664.045715,863.855835 669.078735,864.459351 
	C670.408325,861.306213 670.683167,858.699097 666.893433,857.605652 
	C663.254150,856.555481 659.534790,855.782471 655.209839,855.079651 
M634.665955,449.990448 
	C634.960449,450.874298 634.181335,451.956696 635.148254,452.724030 
	C642.095764,448.858398 642.523926,440.399506 635.741455,433.892456 
	C632.754883,438.982544 635.314148,444.321411 634.665955,449.990448 
M229.072495,298.395905 
	C227.548828,299.121307 225.935974,299.791595 227.018600,302.636444 
	C233.062637,301.078888 239.127213,299.516022 245.859543,297.781128 
	C239.914581,294.418640 239.914581,294.418640 229.072495,298.395905 
M207.804871,296.440186 
	C196.993011,299.205902 196.993011,299.205902 196.965195,302.616882 
	C204.691177,300.235809 212.224396,297.914154 219.757599,295.592499 
	C219.601990,295.069733 219.446396,294.546997 219.290787,294.024231 
	C215.505905,293.488525 212.212067,295.755859 207.804871,296.440186 
M430.097137,165.770309 
	C428.430603,165.101120 426.781921,164.305084 424.776764,165.040054 
	C423.940094,167.321899 422.578308,170.142715 424.722809,171.857590 
	C427.218567,173.853378 430.555817,172.841293 434.447327,172.081177 
	C431.829651,170.384872 431.040344,168.365036 430.097137,165.770309 
M205.641159,291.972656 
	C209.169937,290.988708 212.698715,290.004761 217.215134,288.745453 
	C207.193558,286.990479 198.050064,289.661346 197.843262,294.214111 
	C200.246216,293.521271 202.563904,292.852997 205.641159,291.972656 
M433.087067,190.485977 
	C436.532593,189.710983 439.978119,188.935974 443.423645,188.160965 
	C435.500641,188.014679 427.885132,189.173355 420.560883,191.622330 
	C420.682861,192.186661 420.804840,192.750992 420.926819,193.315338 
	C424.726471,192.481277 428.526093,191.647217 433.087067,190.485977 
M629.445374,845.000549 
	C630.950073,845.674561 632.665161,846.210083 633.114380,848.029419 
	C633.860718,851.051941 635.982056,851.685608 638.730469,851.732971 
	C640.084900,847.420166 635.267578,847.051086 634.022522,844.274841 
	C632.956421,841.897827 628.636780,841.643616 625.160034,841.758789 
	C626.045410,843.677856 627.494385,844.133972 629.445374,845.000549 
M461.862091,183.672791 
	C457.632843,184.682251 453.076996,184.282074 448.156372,186.882309 
	C457.906921,186.562164 466.055084,183.336411 474.547241,181.880096 
	C470.292633,180.340378 466.559906,182.423889 461.862091,183.672791 
M593.914429,224.470169 
	C585.874146,226.161545 577.806702,227.771957 570.477905,231.581909 
	C570.605774,231.966583 570.733643,232.351257 570.861572,232.735931 
	C578.660645,230.081253 586.459717,227.426590 593.914429,224.470169 
M682.457275,167.172272 
	C687.744873,166.898682 693.032471,166.625076 698.320068,166.351486 
	C690.561340,165.558731 682.826721,164.720062 675.224670,166.917999 
	C677.360291,167.021973 679.495972,167.125946 682.457275,167.172272 
M408.610321,341.080597 
	C408.974609,340.344849 408.585480,339.416962 408.038086,339.574799 
	C403.673370,340.833557 399.169952,341.370453 394.659912,341.895569 
	C403.429199,344.649292 403.937714,344.620667 408.610321,341.080597 
M733.249390,162.168945 
	C736.391235,162.228546 739.371826,164.597488 742.915833,163.048141 
	C738.556091,159.498245 730.049316,158.714462 727.359497,161.663895 
	C729.178406,161.818268 730.812439,161.956955 733.249390,162.168945 
M378.396851,420.997375 
	C380.733002,420.373688 383.069153,419.750000 385.405334,419.126282 
	C378.701202,420.203094 371.887939,419.969086 365.275909,421.401520 
	C369.458679,423.575867 373.497314,421.352112 378.396851,420.997375 
M350.646790,506.798096 
	C351.139343,506.230957 352.090790,505.861237 351.263306,504.381927 
	C346.822876,505.639008 343.538849,508.726013 339.024811,512.117432 
	C344.110870,511.506317 347.591736,510.339172 350.646790,506.798096 
M753.352478,233.969757 
	C754.285095,232.951447 755.163635,231.926270 753.611328,230.416885 
	C749.639832,230.956528 748.228271,234.171097 745.655334,237.271637 
	C749.255249,237.373505 751.148926,236.116394 753.352478,233.969757 
M446.534821,457.969574 
	C450.594971,457.547607 454.915131,458.757568 459.706299,455.819305 
	C454.050781,453.861267 450.139130,456.387939 446.534821,457.969574 
M306.351471,269.564758 
	C307.806274,267.337219 309.398560,265.160614 309.642853,260.879517 
	C307.136810,264.166077 305.223755,266.150665 303.964203,268.487488 
	C302.896240,270.468903 304.338501,270.596771 306.351471,269.564758 
M720.514404,248.391357 
	C719.104248,250.531113 720.217346,250.814255 721.841431,249.898010 
	C724.867126,248.191071 727.726746,246.189728 730.655518,244.310898 
	C730.511536,244.073547 730.367493,243.836197 730.223511,243.598846 
	C727.147888,245.064697 724.072205,246.530548 720.514404,248.391357 
M624.532654,827.562622 
	C623.487549,827.504150 622.533081,827.630249 621.930786,829.093384 
	C624.326660,830.777405 626.918701,831.530945 630.212708,831.241333 
	C628.964111,828.869812 626.831421,828.643616 624.532654,827.562622 
M312.289734,243.862167 
	C312.421265,243.579498 312.582764,243.305283 312.666412,243.009109 
	C312.692169,242.917892 312.481079,242.647461 312.419281,242.660019 
	C309.725647,243.207367 307.052155,243.816452 303.803223,245.842941 
	C307.363708,246.048859 309.648865,245.412567 312.289734,243.862167 
z"/>
<path fill="#000000" opacity="1.000000" stroke="none"
		d="
M286.438934,138.968430 
	C292.767944,137.434250 298.716003,135.837296 305.499420,138.085388 
	C298.306061,142.181732 291.141449,142.655365 283.744781,142.042953 
	C283.383301,139.747635 284.915161,139.566177 286.438934,138.968430 
z"/>
<path fill="#000000" opacity="1.000000" stroke="none"
		d="
M357.857330,311.847778 
	C356.252777,313.424225 355.355560,315.428009 351.888000,315.378754 
	C355.369324,307.127075 362.290375,302.306732 367.077820,295.879669 
	C365.280212,301.834534 362.835144,307.369354 357.857330,311.847778 
z"/>
<path fill="#000000" opacity="1.000000" stroke="none"
		d="
M465.308655,237.711411 
	C466.783112,237.589859 467.891205,236.735855 469.544434,238.246109 
	C464.420685,241.532608 459.231995,242.668411 453.411316,241.335419 
	C456.690918,238.389771 460.818604,238.103439 465.308655,237.711411 
z"/>
<path fill="#000000" opacity="1.000000" stroke="none"
		d="
M335.288574,144.013947 
	C337.242401,144.134796 338.997284,143.564102 340.724030,145.759232 
	C337.313721,149.991974 333.005005,146.538498 328.351044,148.066650 
	C330.404724,144.528015 332.907990,144.765518 335.288574,144.013947 
z"/>
<path fill="#000000" opacity="1.000000" stroke="none"
		d="
M577.019165,222.982452 
	C574.049438,223.023041 571.113892,223.312607 568.254211,224.257172 
	C567.071045,224.647995 565.688232,224.485260 565.471069,223.057312 
	C565.195923,221.247818 566.725159,220.794571 568.082275,220.997223 
	C570.847778,221.410156 573.573608,222.089355 576.655457,222.837280 
	C576.995178,223.015732 577.008850,222.992645 577.019165,222.982452 
z"/>
<path fill="#000000" opacity="1.000000" stroke="none"
		d="
M414.047363,507.950989 
	C410.445465,505.558258 405.816132,506.553162 403.084839,503.026703 
	C421.035919,505.618408 437.556793,512.646362 454.157623,519.560425 
	C446.910767,520.326355 440.618256,516.952576 434.056000,514.977295 
	C427.418762,512.979431 420.955536,510.403320 414.047363,507.950989 
z"/>
<path fill="#000000" opacity="1.000000" stroke="none"
		d="
M713.802002,923.816528 
	C717.309814,920.251587 720.460205,916.830994 723.840332,913.655029 
	C725.682678,911.923889 727.578979,909.848755 732.192017,910.683167 
	C726.274231,919.313110 720.373901,926.984985 714.233704,934.471497 
	C708.800232,941.096252 702.821594,947.012695 692.258423,948.480896 
	C698.329895,938.414368 706.899353,932.038879 713.802002,923.816528 
z"/>
<path fill="#000000" opacity="1.000000" stroke="none"
		d="
M373.608124,399.210205 
	C372.307922,399.061676 371.515564,398.065613 372.422699,397.700989 
	C378.295868,395.340332 384.327362,393.552399 390.860779,394.839081 
	C385.877075,398.886719 379.640869,398.051086 373.608124,399.210205 
z"/>
<path fill="#000000" opacity="1.000000" stroke="none"
		d="
M292.304138,210.346436 
	C277.102539,215.461823 260.201385,218.942078 257.226135,217.061981 
	C280.247070,207.954987 303.543884,202.160507 327.838623,200.455048 
	C316.850952,206.408875 304.362671,206.823303 292.304138,210.346436 
z"/>
<path fill="#000000" opacity="1.000000" stroke="none"
		d="
M272.302948,226.539001 
	C275.296143,225.831940 277.971710,225.328781 281.584808,225.937668 
	C277.795593,228.949112 274.287567,229.107422 270.613434,228.693787 
	C270.431213,227.337418 271.288971,227.069809 272.302948,226.539001 
z"/>
<path fill="#000000" opacity="1.000000" stroke="none"
		d="
M241.303986,346.734741 
	C245.131897,345.880585 248.307571,343.462463 253.414322,343.885101 
	C249.598312,348.854889 244.705780,348.652954 240.739914,349.394012 
	C238.380890,349.834808 239.322479,347.692291 241.303986,346.734741 
z"/>
</svg>